<?xml version="1.0" standalone="no"?>
<!DOCTYPE svg PUBLIC "-//W3C//DTD SVG 20010904//EN"
 "http://www.w3.org/TR/2001/REC-SVG-20010904/DTD/svg10.dtd">
<svg version="1.0" xmlns="http://www.w3.org/2000/svg"
 width="351.000000pt" height="351.000000pt" viewBox="0 0 351.000000 351.000000"
 preserveAspectRatio="xMidYMid meet">

<g transform="translate(0.000000,351.000000) scale(0.100000,-0.100000)"
fill="#000000" stroke="none">
<path d="M982 2490 c-18 -11 -37 -32 -42 -46 -6 -15 -10 -223 -10 -520 0 -423
2 -499 15 -524 32 -62 -2 -60 849 -60 454 0 785 4 799 9 14 5 35 25 48 43 l24
33 3 481 c3 533 2 541 -57 581 l-34 23 -781 0 c-763 0 -782 -1 -814 -20z m810
-45 c0 -5 -5 -11 -11 -13 -6 -2 -11 4 -11 13 0 9 5 15 11 13 6 -2 11 -8 11
-13z m738 -520 l0 -455 -735 0 -735 0 0 448 c0 247 3 452 7 455 3 4 334 7 735
7 l728 0 0 -455z m-885 -514 c7 -12 -12 -24 -25 -16 -11 7 -4 25 10 25 5 0 11
-4 15 -9z m150 0 c7 -12 -12 -24 -25 -16 -11 7 -4 25 10 25 5 0 11 -4 15 -9z
m150 0 c7 -12 -12 -24 -25 -16 -11 7 -4 25 10 25 5 0 11 -4 15 -9z"/>
<path d="M1604 2258 c-4 -6 1 -17 11 -25 17 -12 18 -13 1 -13 -9 0 -14 -4 -11
-10 10 -15 35 -12 42 6 3 9 0 20 -8 25 -10 6 -10 9 -1 9 6 0 12 5 12 10 0 14
-37 13 -46 -2z"/>
<path d="M1664 2238 c2 -18 7 -33 12 -33 5 0 10 15 12 33 2 24 -1 32 -12 32
-12 0 -15 -8 -12 -32z"/>
<path d="M1700 2235 c0 -19 5 -35 10 -35 6 0 10 6 10 14 0 9 9 12 27 10 15 -1
31 3 35 9 5 8 8 3 8 -10 0 -13 5 -23 10 -23 6 0 10 16 10 35 0 33 -12 46 -24
26 -3 -5 -17 -8 -31 -8 -14 0 -28 3 -31 8 -12 20 -24 7 -24 -26z"/>
<path d="M1830 2235 c0 -40 3 -42 32 -16 24 23 18 51 -12 51 -16 0 -20 -6 -20
-35z"/>
<path d="M1890 2235 c0 -31 3 -35 25 -35 14 0 25 5 25 10 0 6 -7 10 -15 10 -9
0 -15 9 -15 25 0 14 -4 25 -10 25 -5 0 -10 -16 -10 -35z"/>
<path d="M1950 2235 c0 -31 3 -35 25 -35 14 0 25 5 25 10 0 6 -6 10 -12 10 -8
0 -9 3 -3 8 6 4 11 15 13 25 2 12 -4 17 -23 17 -22 0 -25 -4 -25 -35z"/>
<path d="M1177 2103 c-4 -3 -7 -71 -7 -150 l0 -143 35 0 34 0 3 87 3 86 60
-86 c54 -78 63 -86 93 -87 l33 0 -3 148 -3 147 -30 0 -30 0 -5 -84 -5 -84 -40
59 c-62 90 -85 114 -109 114 -13 0 -26 -3 -29 -7z"/>
<path d="M1497 2104 c-4 -4 -7 -72 -7 -151 l0 -143 120 0 120 0 0 30 0 30 -85
0 -85 0 0 30 0 29 73 3 c69 3 72 4 72 28 0 24 -3 25 -72 28 -70 3 -73 4 -73
27 0 23 3 24 83 27 l82 3 0 30 0 30 -111 3 c-60 1 -113 -1 -117 -4z"/>
<path d="M1780 2103 c0 -4 21 -72 47 -151 48 -143 48 -143 77 -140 26 3 31 10
54 76 14 39 29 72 32 72 4 0 17 -34 30 -75 23 -74 25 -76 53 -73 29 3 31 8 77
143 27 77 46 143 43 148 -7 12 -50 8 -61 -5 -6 -7 -20 -48 -33 -90 -12 -43
-25 -78 -28 -78 -3 0 -17 36 -30 80 -40 132 -63 133 -105 4 l-29 -89 -31 90
c-30 87 -32 90 -63 93 -18 2 -33 0 -33 -5z"/>
<path d="M2285 2097 c-31 -14 -55 -52 -55 -86 0 -32 33 -62 90 -80 41 -14 55
-23 55 -37 0 -25 -39 -30 -71 -9 -23 15 -27 15 -50 0 -29 -19 -30 -27 -4 -50
14 -12 41 -20 80 -23 55 -4 61 -2 90 26 56 56 28 116 -67 147 -40 12 -53 21
-53 36 0 22 39 26 70 7 17 -11 23 -9 46 13 l25 26 -25 16 c-35 24 -95 30 -131
14z"/>
<path d="M1172 1693 c3 -17 41 -18 623 -18 582 0 620 1 623 18 3 16 -32 17
-623 17 -591 0 -626 -1 -623 -17z"/>
<path d="M1535 1619 c-16 -25 21 -29 261 -27 213 3 249 5 249 18 0 13 -36 15
-252 18 -175 2 -254 -1 -258 -9z"/>
<path d="M625 2390 c-4 -7 -3 -16 3 -22 14 -14 45 -2 40 15 -6 16 -34 21 -43
7z"/>
<path d="M2911 2341 c-17 -11 -7 -41 13 -41 22 0 30 20 15 36 -9 8 -19 10 -28
5z"/>
<path d="M573 2151 c-62 -39 -61 -129 2 -179 32 -26 65 -28 105 -7 40 21 60
53 60 97 0 82 -96 134 -167 89z"/>
<path d="M2886 2058 c-9 -12 -16 -32 -16 -44 0 -23 42 -64 65 -64 26 0 65 41
65 69 0 57 -82 85 -114 39z"/>
<path d="M547 1834 c-14 -15 -6 -34 14 -34 14 0 19 5 17 17 -3 18 -20 27 -31
17z"/>
<path d="M621 1827 c-6 -8 -8 -17 -4 -20 11 -11 81 -8 89 4 16 26 -64 41 -85
16z"/>
<path d="M733 1824 c-8 -20 17 -36 34 -22 10 8 10 14 2 24 -15 18 -28 18 -36
-2z"/>
<path d="M2903 1803 c-32 -6 -73 -59 -73 -94 0 -102 105 -146 176 -75 38 38
43 70 18 117 -13 27 -69 62 -91 58 -4 -1 -18 -4 -30 -6z"/>
<path d="M547 1713 c-4 -3 -7 -12 -7 -20 0 -10 26 -13 113 -13 63 0 116 3 120
6 3 3 3 12 0 20 -4 11 -30 14 -112 14 -59 0 -111 -3 -114 -7z"/>
<path d="M553 1513 c-16 -33 -18 -77 -21 -362 -2 -271 -5 -326 -18 -338 -11
-12 -12 -18 -3 -29 10 -12 81 -14 433 -12 413 3 421 3 421 23 0 18 -8 20 -98
23 l-98 3 16 22 c8 12 15 34 15 49 0 18 5 28 15 28 51 0 102 65 89 115 -7 30
-58 75 -84 75 -10 0 -21 7 -24 15 -13 35 -75 49 -221 50 -120 0 -146 -3 -180
-20 l-40 -20 -3 -129 c-1 -72 2 -142 7 -158 l10 -28 -70 0 -69 0 0 309 c0 292
-1 312 -21 365 -12 31 -26 56 -30 56 -5 0 -17 -17 -26 -37z m584 -396 c14 -15
-11 -20 -111 -25 -111 -5 -216 4 -216 18 0 5 15 11 33 13 46 7 286 2 294 -6z
m108 -81 c19 -29 8 -60 -25 -69 -18 -5 -20 0 -20 44 0 56 18 66 45 25z"/>
<path d="M2955 1464 c-17 -17 -21 -138 -15 -439 2 -132 6 -167 22 -205 l20
-45 23 45 c24 44 24 50 25 336 0 222 -3 294 -12 301 -25 19 -48 22 -63 7z m38
-610 c-4 -10 -9 -12 -15 -6 -12 12 -1 35 12 27 5 -3 6 -13 3 -21z"/>
<path d="M882 1235 c2 -14 8 -26 13 -26 6 0 11 12 13 26 2 18 -1 25 -13 25
-12 0 -15 -7 -13 -25z"/>
<path d="M940 1230 c0 -20 5 -30 15 -30 10 0 15 10 15 30 0 20 -5 30 -15 30
-10 0 -15 -10 -15 -30z"/>
<path d="M1002 1236 c2 -15 8 -26 13 -26 15 0 12 43 -3 48 -10 3 -13 -4 -10
-22z"/>
<path d="M1480 1160 c0 -15 5 -20 18 -18 9 2 17 10 17 18 0 8 -8 16 -17 18
-13 2 -18 -3 -18 -18z"/>
<path d="M1555 1169 c-16 -25 20 -29 231 -27 187 3 219 5 219 18 0 13 -33 15
-222 18 -154 2 -224 -1 -228 -9z"/>
<path d="M2040 1160 c0 -15 5 -20 18 -18 9 2 17 10 17 18 0 8 -8 16 -17 18
-13 2 -18 -3 -18 -18z"/>
<path d="M2270 1000 l0 -180 -24 0 c-31 0 -50 -22 -34 -38 17 -17 649 -17 665
-1 19 19 3 39 -33 39 l-33 0 -3 133 c-3 124 -4 132 -23 132 -19 0 -20 -8 -23
-132 l-3 -133 -224 0 -225 0 0 160 0 160 221 0 c195 0 223 -2 234 -17 19 -25
47 -9 43 24 l-3 28 -267 3 -268 2 0 -180z"/>
<path d="M1487 1083 c-4 -3 -7 -12 -7 -20 0 -10 57 -13 300 -13 293 0 300 0
300 20 0 20 -7 20 -293 20 -162 0 -297 -3 -300 -7z"/>
<path d="M2394 1075 c-12 -30 7 -35 140 -35 99 0 136 3 145 13 23 29 -9 37
-146 37 -108 0 -135 -3 -139 -15z"/>
<path d="M1487 993 c-4 -3 -7 -12 -7 -20 0 -10 57 -13 301 -13 281 0 300 1
297 18 -3 16 -26 17 -294 20 -160 1 -293 -1 -297 -5z"/>
<path d="M2394 985 c-12 -30 7 -35 140 -35 99 0 136 3 145 13 23 29 -9 37
-146 37 -108 0 -135 -3 -139 -15z"/>
<path d="M1483 895 c-3 -9 -4 -18 -1 -20 6 -6 589 -7 595 -1 3 3 3 12 0 21 -6
13 -44 15 -297 15 -253 0 -291 -2 -297 -15z"/>
<path d="M1434 805 c-3 -8 -3 -19 1 -25 8 -13 683 -14 704 -1 8 5 11 16 8 25
-6 14 -45 16 -357 16 -297 0 -351 -2 -356 -15z"/>
</g>
</svg>
